<?xml version="1.0" encoding="utf-8"?>
<!-- Generator: Adobe Illustrator 22.1.0, SVG Export Plug-In . SVG Version: 6.00 Build 0)  -->
<svg version="1.1" id="Layer_1" xmlns="http://www.w3.org/2000/svg" xmlns:xlink="http://www.w3.org/1999/xlink" x="0px" y="0px"
	 viewBox="0 0 301.3 82.4" style="enable-background:new 0 0 301.3 82.4;" xml:space="preserve">
<style type="text/css">
	.st0{display:none;enable-background:new    ;}
	.st1{display:inline;fill:#151B26;}
	.st2{fill:#151B26;}
	.st3{fill:#FFFFFF;}
</style>
<g class="layer">
  <title>Layer 1</title>
  <g class="st0" id="svg_1">
   <path class="st1" d="m152.8,72.5c-10.7,0 -18.3,-5.7 -18.3,-15.1l9.5,0c0.6,4.4 3.2,7.6 9.5,7.6c6.3,0 9.5,-3.2 9.5,-7.6c0,-12.6 -27.8,-4.4 -27.8,-24c0,-9.5 7.6,-15.1 18.3,-15.1c10.1,0 17,5 17.7,14.5l-9.5,0c0,-3.8 -3.2,-6.9 -8.8,-6.9c-5,0 -8.8,2.5 -8.8,7.6c0,12 27.8,4.4 27.8,24c-0.8,7.4 -7.1,15 -19.1,15z" id="svg_2"/>
   <path class="st1" d="m176.8,30.2l8.8,0l8.8,33.4l8.8,-33.4l8.8,0l8.2,33.4l8.8,-33.4l8.2,0l-13.2,41.6l-8.8,0l-8.2,-30.9l-8.2,30.9l-9.5,0l-12.5,-41.6z" id="svg_3"/>
   <path class="st1" d="m260.7,29.6c6.9,0 12,3.2 14.5,6.9l0,-6.3l8.8,0l0,41.6l-8.8,0l0,-6.3c-2.5,3.8 -7.6,6.9 -14.5,6.9c-10.7,0 -19.6,-8.8 -19.6,-21.4s8.9,-21.4 19.6,-21.4zm1.9,7.5c-6.3,0 -12.6,5 -12.6,13.9s6.3,14.5 12.6,14.5s12.6,-5 12.6,-13.9c0,-9.4 -6.3,-14.5 -12.6,-14.5z" id="svg_4"/>
   <path class="st1" d="m318.8,29.6c10.7,0 19.6,7.7 19.6,20.1s-8.8,20.1 -19.6,20.1c-6.9,0 -12,-3.5 -14.5,-6.5l0,24.2l-8.8,0l0,-57.3l8.8,0l0,5.9c2.5,-3 7.5,-6.5 14.5,-6.5zm-1.9,7.1c-6.3,0 -12.6,4.7 -12.6,13s6.3,13 12.6,13c6.3,0 12.6,-4.7 12.6,-13.6c0,-7.7 -6.3,-12.4 -12.6,-12.4z" id="svg_5"/>
  </g>
  <circle class="st2" cx="40.1" cy="41" fill="black" id="svg_6" r="40.1"/>
  <text fill="#151b26" font-family="Fantasy" font-size="47" id="svg_18" stroke-dasharray="null" stroke-linecap="null" stroke-linejoin="null" stroke-width="0" text-anchor="middle" transform="matrix(1.02461 0 0 1 -7.26391 0)" x="193.16565" xml:space="preserve" y="61.60001">CuaSat.art</text>
  <text fill="#ffffff" font-family="Fantasy" font-size="47" id="svg_19" stroke-dasharray="null" stroke-linecap="null" stroke-linejoin="null" stroke-width="0" text-anchor="middle" x="40.15002" xml:space="preserve" y="60.60001">CS</text>
 </g>
</svg>
